<svg width="220" height="100" viewBox="0 0 220 100" fill="none" xmlns="http://www.w3.org/2000/svg">
<g clip-path="url(#clip0_23_31910)">
<path d="M93.5402 58.9787V46.8495H93.7593L102.711 58.9787H105.528V41.1668H102.398V53.2654H102.179L93.2271 41.1668H90.4101V58.9787H93.5402ZM114.387 59.2537C118.518 59.2537 121.054 56.6262 121.054 52.2267C121.054 47.8577 118.518 45.1997 114.387 45.1997C110.286 45.1997 107.719 47.8577 107.719 52.2267C107.751 56.6262 110.255 59.2537 114.387 59.2537ZM114.387 56.6873C112.196 56.6873 110.943 55.068 110.943 52.2267C110.943 49.4159 112.196 47.7661 114.387 47.7661C116.578 47.7661 117.83 49.4159 117.83 52.2267C117.83 55.068 116.578 56.6873 114.387 56.6873ZM123.902 42.175V45.5663H121.711V48.0105H123.902V55.3735C123.902 58.001 125.154 59.0398 128.347 59.0398C128.942 59.0398 129.536 58.9787 130.006 58.887V56.504C129.63 56.5345 129.38 56.5651 128.942 56.5651C127.627 56.5651 127.032 55.9846 127.032 54.6403V48.0105H130.006V45.5663H127.032V42.175H123.902ZM131.884 58.9787H135.014V45.4746H131.884V58.9787ZM133.449 43.2443C134.482 43.2443 135.327 42.4194 135.327 41.4112C135.327 40.3724 134.482 39.5475 133.449 39.5475C132.416 39.5475 131.571 40.3724 131.571 41.4112C131.571 42.4194 132.416 43.2443 133.449 43.2443ZM143.59 59.2537C147.722 59.2537 150.258 56.6262 150.258 52.2267C150.258 47.8577 147.722 45.1997 143.59 45.1997C139.49 45.1997 136.923 47.8577 136.923 52.2267C136.923 56.6262 139.427 59.2537 143.59 59.2537ZM143.59 56.6873C141.399 56.6873 140.147 55.068 140.147 52.2267C140.147 49.4159 141.399 47.7661 143.59 47.7661C145.75 47.7661 147.034 49.4159 147.034 52.2267C147.002 55.068 145.75 56.6873 143.59 56.6873ZM152.104 58.9787H155.234V51.1268C155.234 49.1409 156.424 47.8883 158.271 47.8883C160.18 47.8883 161.056 48.927 161.056 50.974V58.9787H164.186V50.2408C164.186 47.0023 162.496 45.1997 159.429 45.1997C157.363 45.1997 155.986 46.1162 155.328 47.6439H155.109V45.4746H152.073C152.104 45.4746 152.104 58.9787 152.104 58.9787Z" fill="#4C4C4D"/>
<path fill-rule="evenodd" clip-rule="evenodd" d="M60.3978 40.0267C61.3088 40.7516 61.6383 40.6944 63.344 40.5799L79.4129 39.6262C79.7618 39.6262 79.471 39.2828 79.3547 39.2447L76.6798 37.3563C76.1758 36.9748 75.478 36.517 74.1793 36.6315L58.6339 37.7569C58.0717 37.8141 57.9554 38.1002 58.188 38.31L60.3978 40.0267ZM61.3669 43.7081V60.3411C61.3669 61.2376 61.8127 61.5619 62.8401 61.5047L80.4983 60.4937C81.5257 60.4365 81.642 59.8261 81.642 59.1013V42.5827C81.642 41.8579 81.3512 41.4573 80.7309 41.5146L62.2779 42.5827C61.5995 42.64 61.3669 42.9833 61.3669 43.7081ZM78.7926 44.6046C78.9089 45.1006 78.7926 45.6156 78.2886 45.6728L77.4358 45.8445V58.1285C76.6992 58.51 76.0208 58.7389 75.4393 58.7389C74.5282 58.7389 74.2956 58.4528 73.6172 57.6135L68.0542 49.0109V57.3274L69.8181 57.7088C69.8181 57.7088 69.8181 58.7198 68.4031 58.7198L64.4877 58.9487C64.3714 58.7198 64.4877 58.1666 64.8753 58.0522L65.9026 57.7661V46.7791L64.4877 46.6647C64.3714 46.1687 64.6621 45.4439 65.4568 45.3867L69.663 45.1006L75.4586 53.7986V46.1115L73.9855 45.9399C73.8692 45.3295 74.3344 44.8717 74.8965 44.8145L78.7926 44.6046ZM57.3352 36.2309L73.5203 35.0674C75.4974 34.8957 76.0208 35.0101 77.2613 35.9066L82.4173 39.4736C83.2702 40.084 83.5609 40.2556 83.5609 40.9233V60.5128C83.5609 61.7336 83.1151 62.4584 81.5257 62.5729L62.7431 63.6983C61.5414 63.7555 60.9793 63.5838 60.359 62.8017L56.5405 57.9377C55.862 57.0412 55.5713 56.3736 55.5713 55.5916V38.1765C55.5713 37.1656 56.0365 36.3454 57.3352 36.2309Z" fill="#4C4C4D"/>
</g>
<defs>
<clipPath id="clip0_23_31910">
<rect width="109" height="40" fill="white" transform="translate(55.5713 30)"/>
</clipPath>
</defs>
</svg>
